<svg t="1675396159810" class="icon" viewBox="0 0 1024 1024" version="1.1" xmlns="http://www.w3.org/2000/svg" p-id="1988" width="32" height="32"><path d="M655.9744 385.4848s-99.7888-7.4752-155.2384 86.528-12.1856 237.2096 149.7088 250.0096 209.5616-107.9296 208.4864-158.1568c-1.1776-50.176-38.8608-175.2064-202.9568-178.3808z" fill="#FF7171" p-id="1989"></path><path d="M858.88 563.9168c-0.8704-39.7824-24.7808-126.3616-116.0704-162.304 53.5552 33.6896 60.2112 139.6224 50.7904 182.5792-30.8736 0-61.7984 6.7072-113.152 10.752-140.6464 5.7856-149.5552-104.704-143.5648-166.8608-13.0048 11.3664-25.4464 25.7536-36.1984 43.9808-55.4496 94.0032-12.1856 237.2096 149.7088 250.0096 161.8944 12.8 209.6128-107.9296 208.4864-158.1568z" fill="#EA5959" p-id="1990"></path><path d="M673.536 738.3552c-7.7824 0-15.9232-0.3072-24.32-0.9728-77.568-6.144-136.96-41.5232-167.1168-99.5328-28.0064-53.9136-25.9584-120.4224 5.4272-173.568 58.2144-98.7136 160.2048-94.6688 169.1136-94.1056 94.5664 1.9456 146.7904 43.1616 173.9264 77.4144 31.1808 39.3216 43.008 85.7088 43.6736 116.0704 0.768 33.8944-16.2816 84.9408-56.1152 122.5216-26.0096 24.4736-71.5776 52.1728-144.5888 52.1728z m-23.6032-337.7152c-19.6608 0-92.3648 5.2224-135.9872 79.1552-26.0096 44.1344-27.8016 99.2256-4.608 143.8208 25.1392 48.2816 75.6736 77.824 142.2848 83.0976 61.1328 4.8128 110.08-9.6256 145.408-42.9568 37.7344-35.6352 46.8992-80.6912 46.4896-99.5328-0.0512-1.5872-5.632-159.8464-187.8528-163.4304-0.256 0-0.512 0-0.8192-0.0512-0.4608 0-2.1504-0.1024-4.9152-0.1024z" fill="#000F04" p-id="1991"></path><path d="M301.9776 497.1008s-100.4032-8.2432-156.2112 95.3344-12.288 261.3248 150.6304 275.456c162.9184 14.1312 210.8928-118.8864 209.7664-174.2336-1.1264-55.296-39.0656-193.024-204.1856-196.5568z" fill="#FF7171" p-id="1992"></path><path d="M505.9584 689.92c-26.0096 111.2576-164.7104 131.3792-234.24 109.2096-149.0944-76.0832-74.6496-267.4688-74.3936-268.032-18.5344 14.0288-36.7104 33.6896-51.6096 61.3888-55.808 103.5776-12.288 261.3248 150.6304 275.456 115.3536 9.984 173.056-53.8112 196.5056-111.5136 4.1984-21.9648 8.5504-44.2368 13.1072-66.304 0.0512-0.1024 0-0.1536 0-0.2048z" fill="#EA5959" p-id="1993"></path><path d="M319.4368 884.2752c-7.9872 0-16.0768-0.3584-24.3712-1.0752-62.72-5.4272-113.7152-31.488-147.456-75.3152-33.6384-43.7248-47.1552-101.888-37.0688-159.6416a15.33952 15.33952 0 0 1 17.7664-12.4928c8.3456 1.4336 13.9264 9.4208 12.4928 17.7664-8.6016 49.2544 2.7648 98.7136 31.1808 135.6288 28.3136 36.8128 71.8336 58.7776 125.7472 63.4368 58.0096 5.0176 105.1648-9.0624 140.2368-41.8304 42.8544-40.0896 53.2992-93.9008 52.8384-116.736-0.0512-1.792-5.6832-177.6128-189.1328-181.5552-0.3072 0-0.6144 0-0.9216-0.0512-3.6864-0.3072-91.3408-5.6832-141.4144 87.296a15.36 15.36 0 0 1-20.7872 6.2464c-7.4752-4.0448-10.24-13.3632-6.2464-20.7872 58.368-108.3904 161.1264-104.0384 170.4448-103.424 95.4368 2.1504 148.0192 47.5136 175.3088 85.1968 31.0784 42.9056 42.8544 93.44 43.52 126.4128 0.768 38.4-18.4832 98.56-62.5664 139.8272-36.0448 33.6384-83.9168 51.0976-139.5712 51.0976z" fill="#000F04" p-id="1994"></path><path d="M635.9552 625.6128s-104.6528 11.7248-144.384 117.1456 31.9488 241.2544 201.8816 222.9248 190.464-148.224 186.0096-199.5264c-6.9632-79.8208-73.1136-169.0112-243.5072-140.544z" fill="#FF7171" p-id="1995"></path><path d="M693.4528 965.6832c119.3472-12.9024 164.9664-80.7936 180.0192-137.8304-100.4544 98.2528-201.7792 81.0496-231.0144 71.9872-138.2912-60.1088-114.6368-215.1936-114.3808-216.832-14.2848 15.4624-27.1872 35.0208-36.5056 59.7504-39.7312 105.4208 31.9488 241.3056 201.8816 222.9248z" fill="#EA5959" p-id="1996"></path><path d="M662.9888 982.7328c-67.9936 0-124.2624-24.8832-160.512-71.7312-37.632-48.5888-47.36-115.1488-25.2928-173.6704 41.5744-110.4384 147.5584-125.8496 156.5696-126.9248 151.1936-25.088 214.016 40.0896 238.0288 81.2544 4.2496 7.3216 1.792 16.7424-5.5296 20.992-7.3216 4.2496-16.7424 1.792-20.992-5.5296-34.6112-59.2896-108.0832-82.8928-206.7968-66.4064-0.256 0.0512-0.5632 0.1024-0.8192 0.1024-3.84 0.4608-95.9488 12.3392-131.6864 107.3152-18.3296 48.5888-10.3424 103.7824 20.8384 144.0256 35.072 45.2608 93.6448 65.8944 165.0176 58.2144 184.4224-19.9168 172.9536-176.2816 172.3392-182.9376a15.37536 15.37536 0 0 1 13.9776-16.64c8.3968-0.7168 15.9232 5.5296 16.64 13.9776 1.3312 15.2064 3.1232 69.0176-29.9008 121.6-23.3984 37.2736-71.7824 83.968-169.7792 94.5152-10.9056 1.28-21.6576 1.8432-32.1024 1.8432z" fill="#000F04" p-id="1997"></path><path d="M519.5776 92.928s1.3312 44.544-30.9248 81.7152S400.6912 298.3424 364.4416 388.096s-38.2976 181.7088-65.1264 207.3088c-26.88 25.6512-32.256 64.1024 0 71.7824s56.4224-2.56 53.7088-29.4912 21.504-142.2848 34.9184-182.016c13.4144-39.7312 67.584-180.736 133.8368-249.9584l19.2512-20.5312s-30.208 116.736 4.7104 324.9152c14.7968 77.4656 63.5392 178.8416 69.1712 189.696-1.3312 27.5456 0 44.2368 21.504 45.5168s64.4608-13.1584 58.4192-32.2048c-6.0416-19.0464-30.5152-15.0016-62.464-84.9408-38.5536-84.4288-54.0672-152.32-63.488-276.6848 14.7968 58.9824 48.6912 129.792 47.36 136.8064-1.3312 7.0656-20.1728 46.1312 8.7552 48.0768 28.8768 1.9456 67.84-28.2112 65.8432-42.9568-1.9968-14.7456-9.728-8.6528-29.0304-32.3584-19.3024-23.7056-84.0704-127.232-78.8992-274.6368 6.5536-44.8512 50.8416-55.0912 26.6752-93.5936s-98.048-44.7488-90.0096 0.1024z" fill="#A2DD9E" p-id="1998"></path><path d="M639.0272 760.7808c-1.2288 0-2.3552-0.0512-3.4816-0.1024-36.5568-2.2016-37.0688-35.2768-36.096-57.6-9.728-20.0704-54.3232-114.5344-68.7104-190.0544-21.9136-130.4576-18.7392-225.2288-12.9536-279.296-52.3264 65.1776-97.4848 174.1824-115.3024 226.8672-13.7728 40.6528-36.5056 152.4224-34.2016 175.5648 1.4848 15.0528-3.2256 28.2112-13.3632 37.0688-13.312 11.6736-34.3552 14.7968-59.2384 8.8576-19.968-4.7616-34.7648-18.3296-39.6288-36.2496-5.2736-19.5584 1.9456-41.1136 19.2512-57.7024 11.6224-11.0592 21.0944-48.384 31.0784-87.8592 9.472-37.2736 20.1728-79.5136 36.864-120.7296C382.5152 282.624 441.1392 196.1984 470.9888 161.792c25.8048-29.7472 23.9616-68.864 23.6544-73.3184-3.1744-19.4048 5.4784-35.072 23.296-41.984 29.1328-11.3152 83.2 4.1472 104.6528 38.2976 19.712 31.3344 4.7616 51.8656-7.2192 68.352-7.6288 10.496-14.7968 20.3776-17.1008 34.816-5.4272 162.2016 74.6496 262.5024 75.4688 263.4752 7.6288 9.3696 12.8 13.056 16.9472 16.0256 5.9904 4.2496 13.4144 9.472 15.36 23.9616 1.28 9.2672-2.8672 19.0976-12.288 29.184-15.616 16.7424-44.4416 32.8192-69.7344 31.1808-1.9968-0.1536-3.84-0.4096-5.5808-0.7168 7.6288 23.3984 16.7936 46.3872 27.9552 70.8096 18.944 41.4208 34.6112 54.5792 45.0048 63.2832 7.168 5.9904 14.5408 12.1856 18.0736 23.3472 2.8672 8.96 0.9728 18.3296-5.2736 26.3168-13.4656 17.3568-45.6704 25.9584-65.1776 25.9584zM541.0816 169.8816c2.5088 0 5.0688 0.6144 7.424 1.8944 6.144 3.3792 9.216 10.496 7.4752 17.3056-0.3072 1.1264-28.8768 116.6848 4.9664 318.5152 13.6704 71.5264 59.2384 168.96 67.6352 185.1904 1.2288 2.4064 1.8432 5.12 1.6896 7.8336-1.4336 28.928 1.5872 29.0816 7.0656 29.44 15.0528 0.9216 37.5296-7.8336 42.2912-13.568-1.0752-1.8944-3.2256-3.84-7.9872-7.8336-12.4928-10.496-31.4368-26.368-53.248-74.0864-39.4752-86.3744-55.1936-154.88-64.8192-281.9072a15.36 15.36 0 0 1 12.8512-16.3328c7.8848-1.2288 15.4112 3.6864 17.3568 11.4176 8.448 33.792 23.3984 71.6288 34.3552 99.2768 12.032 30.464 14.5408 37.12 13.2096 44.1856-0.4096 2.1504-1.1776 4.4032-2.2528 7.5264-4.6592 13.7728-5.2224 19.6608-4.6592 22.1184 0.3584 0.0512 0.8704 0.1536 1.5872 0.2048 19.456 1.2288 45.6192-18.5344 49.3568-26.8288-0.6144-0.4608-1.6384-1.1776-2.4576-1.792-5.0688-3.584-12.7488-9.0112-23.04-21.6576-0.8704-1.0752-88.4736-110.7456-82.3296-284.8768 0-0.5632 0.0512-1.1264 0.1536-1.6896 3.2256-22.3232 14.08-37.2224 22.784-49.2032 11.6736-16.0256 14.3872-20.7872 6.0928-33.9456-13.6192-21.6064-52.0704-32-67.5328-26.0096-3.2256 1.2288-5.1712 2.3552-3.9936 8.704l0.1536 1.1264c0.2048 2.2528 5.2224 55.2448-30.976 96.9216-34.3552 39.6288-88.9856 126.4128-122.4192 209.2032-15.872 39.3216-26.3168 80.4864-35.5328 116.7872-12.5952 49.5616-21.6576 85.3504-39.68 102.5024-9.0624 8.6528-13.1072 18.944-10.8544 27.4432 1.8944 7.0656 7.9872 12.1856 17.1008 14.3872 17.0496 4.0448 27.648 1.5872 31.8976-2.1504 0.9216-0.8192 3.7376-3.2768 3.0208-10.9056-3.1232-31.232 22.784-150.3744 35.6352-188.4672 2.4064-7.0656 59.5456-174.4384 137.3184-255.6416l19.1488-20.4288a15.7696 15.7696 0 0 1 11.2128-4.6592z m134.6048 323.6864z" fill="#000F04" p-id="1999"></path><path d="M913.4592 385.8432s-20.6848-36.5568-49.2032-114.8416c-28.5184-78.2848-132.2496-173.2608-250.9312-127.488-6.3488 72.448 29.7984 313.088 300.1344 242.3296z" fill="#BFE5BD" p-id="2000"></path><path d="M910.08 386.7136c-1.792-0.9216-3.6864-1.8432-5.6832-2.816-70.5024-21.8112-111.4624-75.6224-157.1328-146.1248-37.5296-57.9584-109.2608-86.1184-133.9904-93.7984-6.144 72.6016 30.1056 310.4256 296.8064 242.7392z" fill="#A2DD9E" p-id="2001"></path><path d="M821.8624 414.1568c-55.1424 0-101.5296-15.7184-138.7008-47.104-80.0768-67.584-88.576-185.2416-85.1456-224.8704a15.36 15.36 0 0 1 9.7792-13.0048c94.8736-36.608 180.5312 10.6496 229.12 67.1232 5.5296 6.4512 4.8128 16.128-1.6384 21.6576a15.34464 15.34464 0 0 1-21.6576-1.6384c-19.6096-22.8352-89.6512-92.8256-185.5488-61.7472-1.4848 51.2 16.5376 139.7248 74.9056 188.9792 45.3632 38.2976 108.544 48.9984 187.904 31.8976-8.8576-18.3296-23.5008-50.8928-41.1136-99.2256a15.37024 15.37024 0 0 1 28.8768-10.5472c27.7504 76.2368 47.9744 112.1792 48.1792 112.5376 2.3552 4.1472 2.6624 9.1648 0.768 13.568-1.8432 4.4032-5.632 7.68-10.24 8.8576-34.2528 9.0624-66.0992 13.5168-95.488 13.5168z" fill="#000F04" p-id="2002"></path></svg>